<mxfile host="app.diagrams.net" modified="2023-06-01T01:13:42.951Z" agent="Mozilla/5.0 (Windows NT 10.0; Win64; x64) AppleWebKit/537.36 (KHTML, like Gecko) Chrome/113.0.0.0 Safari/537.36" etag="5eiUH5KOE7-NlnvrlZJJ" version="21.3.6" type="device">
  <diagram name="第 1 页" id="mKQ4tZcS5uQHfod1a6xu">
    <mxGraphModel dx="3695" dy="2569" grid="1" gridSize="10" guides="1" tooltips="1" connect="1" arrows="1" fold="1" page="1" pageScale="1" pageWidth="827" pageHeight="1169" math="0" shadow="0">
      <root>
        <mxCell id="0" />
        <mxCell id="1" parent="0" />
        <mxCell id="6wjUEO2hAQHkffSQsO7H-2" value="NISC_MFP_MVC&lt;br&gt;Presentation Layer" style="rounded=1;whiteSpace=wrap;html=1;fillColor=#dae8fc;strokeColor=#6c8ebf;" parent="1" vertex="1">
          <mxGeometry x="160" y="240" width="320" height="80" as="geometry" />
        </mxCell>
        <mxCell id="_2PHP9-At8P86BqrjOwD-12" style="edgeStyle=orthogonalEdgeStyle;rounded=0;orthogonalLoop=1;jettySize=auto;html=1;exitX=0.75;exitY=0;exitDx=0;exitDy=0;entryX=0.75;entryY=1;entryDx=0;entryDy=0;" edge="1" parent="1" source="6wjUEO2hAQHkffSQsO7H-5" target="6wjUEO2hAQHkffSQsO7H-2">
          <mxGeometry relative="1" as="geometry" />
        </mxCell>
        <mxCell id="_2PHP9-At8P86BqrjOwD-39" value="AutoMapper&amp;lt;Info,ViewModel&amp;gt;" style="edgeLabel;html=1;align=center;verticalAlign=middle;resizable=0;points=[];" vertex="1" connectable="0" parent="_2PHP9-At8P86BqrjOwD-12">
          <mxGeometry x="0.5952" relative="1" as="geometry">
            <mxPoint x="10" y="6" as="offset" />
          </mxGeometry>
        </mxCell>
        <mxCell id="6wjUEO2hAQHkffSQsO7H-5" value="NISC_MFP_MVC_Service&lt;br&gt;Business Logic Layer" style="rounded=1;whiteSpace=wrap;html=1;fillColor=#ffe6cc;strokeColor=#d79b00;" parent="1" vertex="1">
          <mxGeometry x="160" y="440" width="320" height="80" as="geometry" />
        </mxCell>
        <mxCell id="_2PHP9-At8P86BqrjOwD-10" style="edgeStyle=orthogonalEdgeStyle;rounded=0;orthogonalLoop=1;jettySize=auto;html=1;entryX=0.75;entryY=1;entryDx=0;entryDy=0;exitX=0.657;exitY=0;exitDx=0;exitDy=0;exitPerimeter=0;" edge="1" parent="1" source="_2PHP9-At8P86BqrjOwD-22" target="6wjUEO2hAQHkffSQsO7H-5">
          <mxGeometry relative="1" as="geometry">
            <mxPoint x="370" y="580" as="sourcePoint" />
          </mxGeometry>
        </mxCell>
        <mxCell id="_2PHP9-At8P86BqrjOwD-38" value="AutoMapper&amp;lt;RepoDTO,Info&amp;gt;" style="edgeLabel;html=1;align=center;verticalAlign=middle;resizable=0;points=[];" vertex="1" connectable="0" parent="_2PHP9-At8P86BqrjOwD-10">
          <mxGeometry x="0.6099" y="-1" relative="1" as="geometry">
            <mxPoint x="29" as="offset" />
          </mxGeometry>
        </mxCell>
        <mxCell id="6wjUEO2hAQHkffSQsO7H-7" value="NISC_MFP_MVC&lt;br&gt;_Common" style="rounded=1;whiteSpace=wrap;html=1;" parent="1" vertex="1">
          <mxGeometry x="610" y="240" width="120" height="600" as="geometry" />
        </mxCell>
        <mxCell id="6wjUEO2hAQHkffSQsO7H-8" value="" style="endArrow=classic;html=1;rounded=0;entryX=0.25;entryY=0;entryDx=0;entryDy=0;exitX=0.25;exitY=1;exitDx=0;exitDy=0;" parent="1" source="6wjUEO2hAQHkffSQsO7H-2" target="6wjUEO2hAQHkffSQsO7H-5" edge="1">
          <mxGeometry width="50" height="50" relative="1" as="geometry">
            <mxPoint x="370" y="420" as="sourcePoint" />
            <mxPoint x="420" y="370" as="targetPoint" />
            <Array as="points">
              <mxPoint x="240" y="380" />
            </Array>
          </mxGeometry>
        </mxCell>
        <mxCell id="_2PHP9-At8P86BqrjOwD-26" value="AutoMapper&amp;lt;ViewModel,Info&amp;gt;" style="edgeLabel;html=1;align=center;verticalAlign=middle;resizable=0;points=[];" vertex="1" connectable="0" parent="6wjUEO2hAQHkffSQsO7H-8">
          <mxGeometry x="-0.2695" relative="1" as="geometry">
            <mxPoint y="-14" as="offset" />
          </mxGeometry>
        </mxCell>
        <mxCell id="6wjUEO2hAQHkffSQsO7H-13" value="&amp;lt;&amp;lt;DTO&amp;gt;&amp;gt;&lt;br&gt;${page}Info.cs" style="rounded=0;whiteSpace=wrap;html=1;fillColor=#f5f5f5;fontColor=#333333;strokeColor=#666666;" parent="1" vertex="1">
          <mxGeometry x="80" y="370" width="150" height="50" as="geometry" />
        </mxCell>
        <mxCell id="6wjUEO2hAQHkffSQsO7H-14" value="" style="endArrow=classic;html=1;rounded=0;exitX=0.25;exitY=1;exitDx=0;exitDy=0;entryX=0.344;entryY=-0.002;entryDx=0;entryDy=0;entryPerimeter=0;" parent="1" edge="1" target="_2PHP9-At8P86BqrjOwD-22" source="6wjUEO2hAQHkffSQsO7H-5">
          <mxGeometry width="50" height="50" relative="1" as="geometry">
            <mxPoint x="270" y="515" as="sourcePoint" />
            <mxPoint x="250" y="600" as="targetPoint" />
          </mxGeometry>
        </mxCell>
        <mxCell id="_2PHP9-At8P86BqrjOwD-29" value="AutoMapper&amp;lt;Info,RepoDTO&amp;gt;" style="edgeLabel;html=1;align=center;verticalAlign=middle;resizable=0;points=[];" vertex="1" connectable="0" parent="6wjUEO2hAQHkffSQsO7H-14">
          <mxGeometry x="-0.7293" y="-1" relative="1" as="geometry">
            <mxPoint y="7" as="offset" />
          </mxGeometry>
        </mxCell>
        <mxCell id="6wjUEO2hAQHkffSQsO7H-15" value="&amp;lt;&amp;lt;DTO&amp;gt;&amp;gt;&lt;br&gt;Initial${page}RepoDTO.cs" style="rounded=0;whiteSpace=wrap;html=1;fillColor=#f5f5f5;fontColor=#333333;strokeColor=#666666;" parent="1" vertex="1">
          <mxGeometry x="80" y="550" width="150" height="50" as="geometry" />
        </mxCell>
        <mxCell id="_2PHP9-At8P86BqrjOwD-14" value="&amp;lt;&amp;lt;DTO&amp;gt;&amp;gt;&lt;br&gt;${page}Info.cs" style="rounded=0;whiteSpace=wrap;html=1;fillColor=#f5f5f5;fontColor=#333333;strokeColor=#666666;" vertex="1" parent="1">
          <mxGeometry x="410" y="550" width="150" height="50" as="geometry" />
        </mxCell>
        <mxCell id="_2PHP9-At8P86BqrjOwD-15" value="&amp;lt;&amp;lt;DTO&amp;gt;&amp;gt;&lt;br&gt;${page}ViewModel.cs" style="rounded=0;whiteSpace=wrap;html=1;fillColor=#f5f5f5;fontColor=#333333;strokeColor=#666666;" vertex="1" parent="1">
          <mxGeometry x="410" y="370" width="150" height="50" as="geometry" />
        </mxCell>
        <mxCell id="_2PHP9-At8P86BqrjOwD-16" value="" style="endArrow=classic;startArrow=none;html=1;rounded=0;exitX=1;exitY=0.5;exitDx=0;exitDy=0;entryX=0.003;entryY=0.067;entryDx=0;entryDy=0;entryPerimeter=0;strokeWidth=2;targetPerimeterSpacing=0;shadow=0;startFill=0;" edge="1" parent="1" source="6wjUEO2hAQHkffSQsO7H-2" target="6wjUEO2hAQHkffSQsO7H-7">
          <mxGeometry width="50" height="50" relative="1" as="geometry">
            <mxPoint x="370" y="400" as="sourcePoint" />
            <mxPoint x="570" y="290" as="targetPoint" />
          </mxGeometry>
        </mxCell>
        <mxCell id="_2PHP9-At8P86BqrjOwD-17" value="" style="endArrow=classic;startArrow=none;html=1;rounded=0;exitX=1;exitY=0.5;exitDx=0;exitDy=0;entryX=0;entryY=0.4;entryDx=0;entryDy=0;entryPerimeter=0;strokeWidth=2;targetPerimeterSpacing=0;shadow=0;startFill=0;" edge="1" parent="1" source="6wjUEO2hAQHkffSQsO7H-5" target="6wjUEO2hAQHkffSQsO7H-7">
          <mxGeometry width="50" height="50" relative="1" as="geometry">
            <mxPoint x="490" y="450" as="sourcePoint" />
            <mxPoint x="570" y="490" as="targetPoint" />
          </mxGeometry>
        </mxCell>
        <mxCell id="_2PHP9-At8P86BqrjOwD-18" value="" style="endArrow=classic;startArrow=none;html=1;rounded=0;entryX=0;entryY=0.733;entryDx=0;entryDy=0;entryPerimeter=0;strokeWidth=2;targetPerimeterSpacing=0;jumpStyle=none;jumpSize=6;shadow=0;startFill=0;exitX=1;exitY=0.302;exitDx=0;exitDy=0;exitPerimeter=0;" edge="1" parent="1" source="_2PHP9-At8P86BqrjOwD-22" target="6wjUEO2hAQHkffSQsO7H-7">
          <mxGeometry width="50" height="50" relative="1" as="geometry">
            <mxPoint x="590" y="690" as="sourcePoint" />
            <mxPoint x="570" y="690" as="targetPoint" />
          </mxGeometry>
        </mxCell>
        <mxCell id="_2PHP9-At8P86BqrjOwD-24" value="" style="group" vertex="1" connectable="0" parent="1">
          <mxGeometry x="65" y="620" width="510" height="200" as="geometry" />
        </mxCell>
        <mxCell id="_2PHP9-At8P86BqrjOwD-22" value="" style="rounded=0;whiteSpace=wrap;html=1;" vertex="1" parent="_2PHP9-At8P86BqrjOwD-24">
          <mxGeometry width="510" height="200" as="geometry" />
        </mxCell>
        <mxCell id="6wjUEO2hAQHkffSQsO7H-6" value="NISC_MFP_MVC_Repository&lt;br&gt;Data Access Layer" style="rounded=1;whiteSpace=wrap;html=1;fillColor=#f8cecc;strokeColor=#b85450;" parent="_2PHP9-At8P86BqrjOwD-24" vertex="1">
          <mxGeometry x="95" y="20" width="320" height="80" as="geometry" />
        </mxCell>
        <mxCell id="_2PHP9-At8P86BqrjOwD-6" value="&amp;lt;&amp;lt;DTO&amp;gt;&amp;gt;&lt;br&gt;${table name}.cs" style="rounded=0;whiteSpace=wrap;html=1;fillColor=#f5f5f5;fontColor=#333333;strokeColor=#666666;" vertex="1" parent="_2PHP9-At8P86BqrjOwD-24">
          <mxGeometry x="15" y="140" width="150" height="50" as="geometry" />
        </mxCell>
        <mxCell id="_2PHP9-At8P86BqrjOwD-9" value="&amp;lt;&amp;lt;DTO&amp;gt;&amp;gt;&lt;br&gt;Initial${page}RepoDTO.cs" style="rounded=0;whiteSpace=wrap;html=1;fillColor=#f5f5f5;fontColor=#333333;strokeColor=#666666;" vertex="1" parent="_2PHP9-At8P86BqrjOwD-24">
          <mxGeometry x="345" y="140" width="150" height="50" as="geometry" />
        </mxCell>
        <mxCell id="_2PHP9-At8P86BqrjOwD-30" value="" style="endArrow=classic;html=1;rounded=0;exitX=0.25;exitY=1;exitDx=0;exitDy=0;" edge="1" parent="_2PHP9-At8P86BqrjOwD-24" source="6wjUEO2hAQHkffSQsO7H-6">
          <mxGeometry width="50" height="50" relative="1" as="geometry">
            <mxPoint x="235" y="150" as="sourcePoint" />
            <mxPoint x="175" y="200" as="targetPoint" />
          </mxGeometry>
        </mxCell>
        <mxCell id="_2PHP9-At8P86BqrjOwD-32" value="AutoMapper&amp;lt;RepoDTO,table&amp;gt;" style="edgeLabel;html=1;align=center;verticalAlign=middle;resizable=0;points=[];" vertex="1" connectable="0" parent="_2PHP9-At8P86BqrjOwD-30">
          <mxGeometry x="-0.52" y="-1" relative="1" as="geometry">
            <mxPoint y="-4" as="offset" />
          </mxGeometry>
        </mxCell>
        <mxCell id="_2PHP9-At8P86BqrjOwD-25" value="資料相關" style="text;html=1;strokeColor=none;fillColor=none;align=center;verticalAlign=middle;whiteSpace=wrap;rounded=0;fontSize=20;fontStyle=0" vertex="1" parent="1">
          <mxGeometry x="250" y="580" width="140" height="40" as="geometry" />
        </mxCell>
        <mxCell id="_2PHP9-At8P86BqrjOwD-34" value="" style="endArrow=classic;html=1;rounded=0;exitX=0.75;exitY=1;exitDx=0;exitDy=0;entryX=0.75;entryY=1;entryDx=0;entryDy=0;" edge="1" parent="1" target="6wjUEO2hAQHkffSQsO7H-6">
          <mxGeometry width="50" height="50" relative="1" as="geometry">
            <mxPoint x="400" y="820" as="sourcePoint" />
            <mxPoint x="340" y="750" as="targetPoint" />
          </mxGeometry>
        </mxCell>
        <mxCell id="_2PHP9-At8P86BqrjOwD-35" value="AutoMapper&amp;lt;table,RepoDTO&amp;gt;" style="edgeLabel;html=1;align=center;verticalAlign=middle;resizable=0;points=[];" vertex="1" connectable="0" parent="_2PHP9-At8P86BqrjOwD-34">
          <mxGeometry x="-0.52" y="-1" relative="1" as="geometry">
            <mxPoint x="21" y="-56" as="offset" />
          </mxGeometry>
        </mxCell>
        <mxCell id="_2PHP9-At8P86BqrjOwD-42" value="邏輯相關" style="text;html=1;strokeColor=none;fillColor=none;align=center;verticalAlign=middle;whiteSpace=wrap;rounded=0;fontSize=20;fontStyle=0" vertex="1" parent="1">
          <mxGeometry x="250" y="400" width="140" height="40" as="geometry" />
        </mxCell>
        <mxCell id="_2PHP9-At8P86BqrjOwD-43" value="介面相關" style="text;html=1;strokeColor=none;fillColor=none;align=center;verticalAlign=middle;whiteSpace=wrap;rounded=0;fontSize=20;fontStyle=0" vertex="1" parent="1">
          <mxGeometry x="250" y="200" width="140" height="40" as="geometry" />
        </mxCell>
        <mxCell id="_2PHP9-At8P86BqrjOwD-45" value="" style="shape=flexArrow;endArrow=classic;html=1;rounded=0;entryX=0.5;entryY=0;entryDx=0;entryDy=0;exitX=0.295;exitY=1.004;exitDx=0;exitDy=0;exitPerimeter=0;" edge="1" parent="1" source="_2PHP9-At8P86BqrjOwD-130" target="_2PHP9-At8P86BqrjOwD-43">
          <mxGeometry width="50" height="50" relative="1" as="geometry">
            <mxPoint x="330" y="-200" as="sourcePoint" />
            <mxPoint x="390" y="110" as="targetPoint" />
          </mxGeometry>
        </mxCell>
        <mxCell id="_2PHP9-At8P86BqrjOwD-46" value="&lt;font style=&quot;font-size: 20px;&quot;&gt;Http Request&lt;/font&gt;" style="edgeLabel;html=1;align=center;verticalAlign=middle;resizable=0;points=[];fontSize=20;fontStyle=1" vertex="1" connectable="0" parent="_2PHP9-At8P86BqrjOwD-45">
          <mxGeometry x="-0.3463" y="-1" relative="1" as="geometry">
            <mxPoint x="-18" y="48" as="offset" />
          </mxGeometry>
        </mxCell>
        <mxCell id="_2PHP9-At8P86BqrjOwD-129" value="" style="shape=flexArrow;endArrow=classic;html=1;rounded=0;exitX=0.875;exitY=-0.029;exitDx=0;exitDy=0;exitPerimeter=0;entryX=0.5;entryY=1;entryDx=0;entryDy=0;entryPerimeter=0;" edge="1" parent="1" source="6wjUEO2hAQHkffSQsO7H-2" target="_2PHP9-At8P86BqrjOwD-131">
          <mxGeometry width="50" height="50" relative="1" as="geometry">
            <mxPoint x="525" y="175" as="sourcePoint" />
            <mxPoint x="440" y="150" as="targetPoint" />
          </mxGeometry>
        </mxCell>
        <mxCell id="_2PHP9-At8P86BqrjOwD-130" value="" style="image;points=[];aspect=fixed;html=1;align=center;shadow=0;dashed=0;image=img/lib/allied_telesis/computer_and_terminals/Personal_Computer_with_Server.svg;" vertex="1" parent="1">
          <mxGeometry x="260" y="-330" width="200" height="200" as="geometry" />
        </mxCell>
        <mxCell id="_2PHP9-At8P86BqrjOwD-131" value="Filtered Data" style="shape=cylinder3;whiteSpace=wrap;html=1;boundedLbl=1;backgroundOutline=1;size=15;" vertex="1" parent="1">
          <mxGeometry x="400" y="110" width="80" height="80" as="geometry" />
        </mxCell>
        <mxCell id="_2PHP9-At8P86BqrjOwD-133" value="" style="shape=flexArrow;endArrow=classic;html=1;rounded=0;exitX=0.5;exitY=0;exitDx=0;exitDy=0;exitPerimeter=0;entryX=0.5;entryY=1;entryDx=0;entryDy=0;entryPerimeter=0;" edge="1" parent="1" source="_2PHP9-At8P86BqrjOwD-131" target="_2PHP9-At8P86BqrjOwD-132">
          <mxGeometry width="50" height="50" relative="1" as="geometry">
            <mxPoint x="520" y="78" as="sourcePoint" />
            <mxPoint x="520" y="10" as="targetPoint" />
          </mxGeometry>
        </mxCell>
        <mxCell id="_2PHP9-At8P86BqrjOwD-134" value="&lt;font style=&quot;font-size: 20px;&quot;&gt;Injection&lt;/font&gt;" style="edgeLabel;html=1;align=center;verticalAlign=middle;resizable=0;points=[];fontStyle=1" vertex="1" connectable="0" parent="_2PHP9-At8P86BqrjOwD-133">
          <mxGeometry x="-0.1917" y="2" relative="1" as="geometry">
            <mxPoint x="2" y="2" as="offset" />
          </mxGeometry>
        </mxCell>
        <mxCell id="_2PHP9-At8P86BqrjOwD-136" value="" style="group" vertex="1" connectable="0" parent="1">
          <mxGeometry x="371.25" y="-70" width="137.5" height="110" as="geometry" />
        </mxCell>
        <mxCell id="_2PHP9-At8P86BqrjOwD-132" value="" style="verticalLabelPosition=bottom;html=1;verticalAlign=top;align=center;strokeColor=none;fillColor=#00BEF2;shape=mxgraph.azure.storage;pointerEvents=1;" vertex="1" parent="_2PHP9-At8P86BqrjOwD-136">
          <mxGeometry width="137.5" height="110.00000000000001" as="geometry" />
        </mxCell>
        <mxCell id="_2PHP9-At8P86BqrjOwD-135" value="&lt;font style=&quot;font-size: 15px;&quot;&gt;&lt;b&gt;jQuery DataTable&lt;/b&gt;&lt;/font&gt;" style="text;html=1;strokeColor=#b85450;fillColor=#f8cecc;align=center;verticalAlign=middle;whiteSpace=wrap;rounded=0;" vertex="1" parent="_2PHP9-At8P86BqrjOwD-136">
          <mxGeometry x="3.75" y="6.416666666666668" width="130" height="18.333333333333336" as="geometry" />
        </mxCell>
        <mxCell id="_2PHP9-At8P86BqrjOwD-138" value="" style="shape=flexArrow;endArrow=classic;html=1;rounded=0;exitX=0.5;exitY=0;exitDx=0;exitDy=0;exitPerimeter=0;entryX=0.902;entryY=1.013;entryDx=0;entryDy=0;entryPerimeter=0;" edge="1" parent="1" source="_2PHP9-At8P86BqrjOwD-132" target="_2PHP9-At8P86BqrjOwD-130">
          <mxGeometry width="50" height="50" relative="1" as="geometry">
            <mxPoint x="650" y="-82" as="sourcePoint" />
            <mxPoint x="440" y="-120" as="targetPoint" />
          </mxGeometry>
        </mxCell>
        <mxCell id="_2PHP9-At8P86BqrjOwD-143" value="" style="endArrow=classic;html=1;rounded=0;fillColor=#f8cecc;strokeColor=#b85450;exitX=1;exitY=0.75;exitDx=0;exitDy=0;entryX=0;entryY=0.1;entryDx=0;entryDy=0;entryPerimeter=0;" edge="1" parent="1" source="6wjUEO2hAQHkffSQsO7H-2" target="6wjUEO2hAQHkffSQsO7H-7">
          <mxGeometry width="50" height="50" relative="1" as="geometry">
            <mxPoint x="60" y="340" as="sourcePoint" />
            <mxPoint x="570" y="320" as="targetPoint" />
          </mxGeometry>
        </mxCell>
        <mxCell id="_2PHP9-At8P86BqrjOwD-144" value="" style="endArrow=classic;html=1;rounded=0;fillColor=#f8cecc;strokeColor=#b85450;exitX=0;exitY=0.75;exitDx=0;exitDy=0;entryX=0;entryY=0.5;entryDx=0;entryDy=0;" edge="1" parent="1" source="6wjUEO2hAQHkffSQsO7H-2" target="6wjUEO2hAQHkffSQsO7H-5">
          <mxGeometry width="50" height="50" relative="1" as="geometry">
            <mxPoint x="20" y="290" as="sourcePoint" />
            <mxPoint x="100" y="330" as="targetPoint" />
            <Array as="points">
              <mxPoint x="40" y="300" />
              <mxPoint x="40" y="480" />
            </Array>
          </mxGeometry>
        </mxCell>
        <mxCell id="_2PHP9-At8P86BqrjOwD-145" value="" style="endArrow=classic;html=1;rounded=0;fillColor=#f8cecc;strokeColor=#b85450;exitX=0;exitY=0.75;exitDx=0;exitDy=0;entryX=0;entryY=0.25;entryDx=0;entryDy=0;" edge="1" parent="1" source="6wjUEO2hAQHkffSQsO7H-5" target="_2PHP9-At8P86BqrjOwD-22">
          <mxGeometry width="50" height="50" relative="1" as="geometry">
            <mxPoint x="170" y="310" as="sourcePoint" />
            <mxPoint x="40" y="580" as="targetPoint" />
            <Array as="points">
              <mxPoint x="40" y="500" />
              <mxPoint x="40" y="670" />
            </Array>
          </mxGeometry>
        </mxCell>
        <mxCell id="_2PHP9-At8P86BqrjOwD-146" value="" style="endArrow=classic;html=1;rounded=0;fillColor=#f8cecc;strokeColor=#b85450;exitX=0.5;exitY=0;exitDx=0;exitDy=0;entryX=0.5;entryY=1;entryDx=0;entryDy=0;" edge="1" parent="1" source="_2PHP9-At8P86BqrjOwD-22" target="6wjUEO2hAQHkffSQsO7H-5">
          <mxGeometry width="50" height="50" relative="1" as="geometry">
            <mxPoint x="340" y="560" as="sourcePoint" />
            <mxPoint x="120" y="530" as="targetPoint" />
            <Array as="points" />
          </mxGeometry>
        </mxCell>
        <mxCell id="_2PHP9-At8P86BqrjOwD-147" value="" style="endArrow=classic;html=1;rounded=0;fillColor=#f8cecc;strokeColor=#b85450;exitX=0.5;exitY=0;exitDx=0;exitDy=0;entryX=0.503;entryY=1.042;entryDx=0;entryDy=0;entryPerimeter=0;" edge="1" parent="1" source="6wjUEO2hAQHkffSQsO7H-5" target="6wjUEO2hAQHkffSQsO7H-2">
          <mxGeometry width="50" height="50" relative="1" as="geometry">
            <mxPoint x="330" y="630" as="sourcePoint" />
            <mxPoint x="320" y="370" as="targetPoint" />
            <Array as="points" />
          </mxGeometry>
        </mxCell>
        <mxCell id="_2PHP9-At8P86BqrjOwD-150" value="&amp;lt;&amp;lt;HttpRequest Model&amp;gt;&amp;gt;&lt;br&gt;DataTableRequest.cs" style="rounded=0;whiteSpace=wrap;html=1;fillColor=#f5f5f5;fontColor=#333333;strokeColor=#666666;" vertex="1" parent="1">
          <mxGeometry x="530" y="310" width="140" height="40" as="geometry" />
        </mxCell>
        <mxCell id="_2PHP9-At8P86BqrjOwD-151" value="OR" style="shape=xor;whiteSpace=wrap;html=1;rotation=-90;" vertex="1" parent="1">
          <mxGeometry x="370" y="830" width="60" height="80" as="geometry" />
        </mxCell>
        <mxCell id="_2PHP9-At8P86BqrjOwD-152" value="" style="endArrow=classic;html=1;rounded=0;entryX=0.25;entryY=0;entryDx=0;entryDy=0;" edge="1" parent="1" target="6wjUEO2hAQHkffSQsO7H-18">
          <mxGeometry width="50" height="50" relative="1" as="geometry">
            <mxPoint x="240" y="820" as="sourcePoint" />
            <mxPoint x="120" y="920" as="targetPoint" />
          </mxGeometry>
        </mxCell>
        <mxCell id="_2PHP9-At8P86BqrjOwD-5" value="" style="group" vertex="1" connectable="0" parent="1">
          <mxGeometry x="160" y="939.9966666666667" width="320" height="163.33333333333334" as="geometry" />
        </mxCell>
        <mxCell id="_2PHP9-At8P86BqrjOwD-157" value="" style="group" vertex="1" connectable="0" parent="_2PHP9-At8P86BqrjOwD-5">
          <mxGeometry width="320" height="163.33333333333334" as="geometry" />
        </mxCell>
        <mxCell id="6wjUEO2hAQHkffSQsO7H-18" value="" style="rounded=0;whiteSpace=wrap;html=1;container=0;" parent="_2PHP9-At8P86BqrjOwD-157" vertex="1">
          <mxGeometry width="320" height="163.33333333333334" as="geometry" />
        </mxCell>
        <mxCell id="6wjUEO2hAQHkffSQsO7H-9" value="SQL Server" style="shape=datastore;whiteSpace=wrap;html=1;container=0;" parent="_2PHP9-At8P86BqrjOwD-157" vertex="1">
          <mxGeometry x="10" y="40" width="110" height="111.67" as="geometry" />
        </mxCell>
        <mxCell id="6wjUEO2hAQHkffSQsO7H-10" value="MySQL" style="shape=datastore;whiteSpace=wrap;html=1;container=0;" parent="_2PHP9-At8P86BqrjOwD-157" vertex="1">
          <mxGeometry x="199" y="40" width="110" height="111.67" as="geometry" />
        </mxCell>
        <mxCell id="_2PHP9-At8P86BqrjOwD-19" value="Linq to Entity" style="text;html=1;strokeColor=none;fillColor=none;align=center;verticalAlign=middle;whiteSpace=wrap;rounded=0;fontSize=20;fontStyle=0" vertex="1" parent="_2PHP9-At8P86BqrjOwD-157">
          <mxGeometry x="100" y="5" width="120" height="35" as="geometry" />
        </mxCell>
        <mxCell id="_2PHP9-At8P86BqrjOwD-158" value="" style="endArrow=none;html=1;rounded=0;exitX=0.189;exitY=0.747;exitDx=0;exitDy=0;exitPerimeter=0;entryX=0.5;entryY=1;entryDx=0;entryDy=0;" edge="1" parent="1" source="_2PHP9-At8P86BqrjOwD-151" target="6wjUEO2hAQHkffSQsO7H-10">
          <mxGeometry width="50" height="50" relative="1" as="geometry">
            <mxPoint x="391" y="900" as="sourcePoint" />
            <mxPoint x="420" y="940" as="targetPoint" />
            <Array as="points">
              <mxPoint x="420" y="910" />
              <mxPoint x="490" y="910" />
              <mxPoint x="490" y="1110" />
              <mxPoint x="414" y="1110" />
            </Array>
          </mxGeometry>
        </mxCell>
        <mxCell id="_2PHP9-At8P86BqrjOwD-159" value="" style="endArrow=classic;html=1;rounded=0;exitX=1;exitY=0.5;exitDx=0;exitDy=0;exitPerimeter=0;entryX=0.657;entryY=1;entryDx=0;entryDy=0;entryPerimeter=0;endFill=1;" edge="1" parent="1" source="_2PHP9-At8P86BqrjOwD-151" target="_2PHP9-At8P86BqrjOwD-22">
          <mxGeometry width="50" height="50" relative="1" as="geometry">
            <mxPoint x="461.25" y="870" as="sourcePoint" />
            <mxPoint x="391" y="929" as="targetPoint" />
          </mxGeometry>
        </mxCell>
        <mxCell id="_2PHP9-At8P86BqrjOwD-161" value="" style="endArrow=classic;html=1;rounded=0;strokeWidth=10;fillColor=#008a00;strokeColor=#005700;" edge="1" parent="1">
          <mxGeometry width="50" height="50" relative="1" as="geometry">
            <mxPoint x="-1" y="245" as="sourcePoint" />
            <mxPoint x="-1" y="925" as="targetPoint" />
          </mxGeometry>
        </mxCell>
        <mxCell id="_2PHP9-At8P86BqrjOwD-162" value="&lt;font style=&quot;font-size: 15px;&quot;&gt;&lt;br&gt;&lt;br&gt;上層能存取下層，反之下層無法存取上層&lt;/font&gt;" style="shape=note;whiteSpace=wrap;html=1;backgroundOutline=1;darkOpacity=0.05;" vertex="1" parent="1">
          <mxGeometry x="-101" y="420" width="90" height="140" as="geometry" />
        </mxCell>
        <mxCell id="_2PHP9-At8P86BqrjOwD-165" value="" style="endArrow=classic;html=1;rounded=0;strokeWidth=10;fillColor=#a20025;strokeColor=#6F0000;" edge="1" parent="1">
          <mxGeometry width="50" height="50" relative="1" as="geometry">
            <mxPoint x="780" y="920" as="sourcePoint" />
            <mxPoint x="780" y="240" as="targetPoint" />
          </mxGeometry>
        </mxCell>
        <mxCell id="_2PHP9-At8P86BqrjOwD-170" value="" style="shape=mxgraph.mockup.markup.redX;fillColor=#ff0000;html=1;shadow=0;whiteSpace=wrap;strokeColor=none;" vertex="1" parent="1">
          <mxGeometry x="730" y="180" width="100" height="50" as="geometry" />
        </mxCell>
        <mxCell id="_2PHP9-At8P86BqrjOwD-171" value="" style="shape=image;html=1;verticalAlign=top;verticalLabelPosition=bottom;labelBackgroundColor=#ffffff;imageAspect=0;aspect=fixed;image=https://cdn3.iconfinder.com/data/icons/flat-actions-icons-9/512/Tick_Mark-128.png" vertex="1" parent="1">
          <mxGeometry x="-40" y="152" width="88" height="88" as="geometry" />
        </mxCell>
        <mxCell id="_2PHP9-At8P86BqrjOwD-156" value="" style="endArrow=none;html=1;rounded=0;exitX=0.191;exitY=0.245;exitDx=0;exitDy=0;exitPerimeter=0;entryX=0.5;entryY=1;entryDx=0;entryDy=0;" edge="1" parent="1" source="_2PHP9-At8P86BqrjOwD-151" target="6wjUEO2hAQHkffSQsO7H-9">
          <mxGeometry width="50" height="50" relative="1" as="geometry">
            <mxPoint x="400" y="910" as="sourcePoint" />
            <mxPoint x="380" y="950" as="targetPoint" />
            <Array as="points">
              <mxPoint x="380" y="920" />
              <mxPoint x="500" y="920" />
              <mxPoint x="500" y="1120" />
              <mxPoint x="225" y="1120" />
            </Array>
          </mxGeometry>
        </mxCell>
      </root>
    </mxGraphModel>
  </diagram>
</mxfile>
